<?xml version="1.0" encoding="iso-8859-1"?>
<!-- Uploaded to: SVG Repo, www.svgrepo.com, Generator: SVG Repo Mixer Tools -->
<!DOCTYPE svg PUBLIC "-//W3C//DTD SVG 1.1//EN" "http://www.w3.org/Graphics/SVG/1.1/DTD/svg11.dtd">
<svg fill="#000000" height="800px" width="800px" version="1.1" id="Capa_1" xmlns="http://www.w3.org/2000/svg" xmlns:xlink="http://www.w3.org/1999/xlink" 
	 viewBox="0 0 511 511" xml:space="preserve">
<g>
	<path d="M375.5,360h-42.98l-4.756-65h7.736c4.142,0,7.5-3.358,7.5-7.5s-3.358-7.5-7.5-7.5h-8.834l-7.687-105.054
		c-0.37-4.99,1.837-8.497,3.752-10.56c3.179-3.423,7.833-5.386,12.768-5.386c4.142,0,7.5-3.358,7.5-7.5s-3.358-7.5-7.5-7.5H335
		v-40.5c0-4.142-3.358-7.5-7.5-7.5s-7.5,3.358-7.5,7.5v0.5h-17v-0.5c0-4.142-3.358-7.5-7.5-7.5s-7.5,3.358-7.5,7.5v0.5h-1V71h0.5
		c4.142,0,7.5-3.358,7.5-7.5s-3.358-7.5-7.5-7.5h-1.223C283.232,40.225,270.775,27.769,255,24.723V7.5c0-4.142-3.358-7.5-7.5-7.5
		S240,3.358,240,7.5v17.223C224.225,27.769,211.769,40.225,208.724,56H207.5c-4.142,0-7.5,3.358-7.5,7.5s3.358,7.5,7.5,7.5h0.5v33
		h-1v-0.5c0-4.142-3.358-7.5-7.5-7.5s-7.5,3.358-7.5,7.5v0.5h-17v-0.5c0-4.142-3.358-7.5-7.5-7.5s-7.5,3.358-7.5,7.5V144h-0.5
		c-4.142,0-7.5,3.358-7.5,7.5s3.358,7.5,7.5,7.5c4.936,0,9.589,1.963,12.768,5.386c1.916,2.063,4.122,5.57,3.752,10.566L152.529,496
		H135.5c-4.142,0-7.5,3.358-7.5,7.5s3.358,7.5,7.5,7.5h199.982c0.003,0,0.007,0,0.01,0c0.004,0,0.009,0,0.013,0H359.5
		c4.142,0,7.5-3.358,7.5-7.5s-3.358-7.5-7.5-7.5h-17.029l-6.514-89.02c0.779-0.048,1.563-0.211,2.328-0.517l40-16
		c2.847-1.139,4.714-3.896,4.714-6.963v-16C383,363.358,379.642,360,375.5,360z M320,119v25h-17v-25H320z M288,144h-17v-25h17V144z
		 M239,144v-25h17v25H239z M271,104v-0.5c0-4.142-3.358-7.5-7.5-7.5s-7.5,3.358-7.5,7.5v0.5h-1V71h17v33H271z M247.5,39
		c10.894,0,20.145,7.149,23.321,17h-46.642C227.355,46.149,236.607,39,247.5,39z M223,71h17v33h-1v-0.5c0-4.142-3.358-7.5-7.5-7.5
		s-7.5,3.358-7.5,7.5v0.5h-1V71z M224,119v25h-17v-25H224z M175,144v-25h17v25H175z M167.569,496l23.411-319.946
		c0.45-6.072-0.978-11.957-4.071-17.054h121.184c-3.093,5.097-4.521,10.981-4.072,17.047l8.073,110.33
		c-0.055,0.367-0.093,0.74-0.093,1.122c0,0.778,0.119,1.528,0.339,2.234L327.431,496H167.569z M368,378.422l-33.161,13.265
		L333.618,375H368V378.422z"/>
	<path d="M247.5,192c-4.142,0-7.5,3.358-7.5,7.5v24c0,4.142,3.358,7.5,7.5,7.5s7.5-3.358,7.5-7.5v-24
		C255,195.358,251.642,192,247.5,192z"/>
</g>
</svg>